{"title":"Modern Family S05E19 HDTV x264 AAC [GWC].mp4","uid":9878507,"size":82180633,"categoryP":"video","categoryS":"tv_shows","magnet":"?xt=urn:btih:60e22befe998a7b4d0dd901da31c4c4b912a5bd7&amp;dn=Modern+Family+S05E19+HDTV+x264+AAC+%5BGWC%5D.mp4&amp;tr=udp%3A%2F%2Ftracker.openbittorrent.com%3A80&amp;tr=udp%3A%2F%2Fopen.demonii.com%3A1337&amp;tr=udp%3A%2F%2Ftracker.coppersurfer.tk%3A6969&amp;tr=udp%3A%2F%2Fexodus.desync.com%3A6969","seeders":1,"leechers":0,"uploader":"canc232","files":1,"time":1396506444,"description":"Modern Family S05E19 HDTV x264 AAC [GWC] \n\n\nSTORYLINE :\nThree different, but related families face trials and tribulations in their own uniquely comedic ways.\n\n\nSCREENS : &lt;a href=&quot;\nhttp://i.imgur.com/1KVHh0o.jpg&quot; rel=&quot;nofollow&quot; target=&quot;_NEW&quot;&gt;\nhttp://i.imgur.com/1KVHh0o.jpg&lt;/a&gt; &lt;a href=&quot;\nhttp://i.imgur.com/85IE0M1.jpg&quot; rel=&quot;nofollow&quot; target=&quot;_NEW&quot;&gt;\nhttp://i.imgur.com/85IE0M1.jpg&lt;/a&gt; &lt;a href=&quot;\nhttp://i.imgur.com/wdedjcS.jpg&quot; rel=&quot;nofollow&quot; target=&quot;_NEW&quot;&gt;\nhttp://i.imgur.com/wdedjcS.jpg&lt;/a&gt;\n\n\nMEDIA INFO :\nGeneral \nFormat : MPEG-4 \nFormat profile : Base Media \nFile size : 78.4 MiB \nDuration : 21mn 3s \nOverall bit rate mode : Variable \nOverall bit rate : 520 Kbps \n\nVideo \nFormat : AVC \nFormat profile : &lt;a class=&quot;__cf_email__&quot; href=&quot;/cdn-cgi/l/email-protection&quot; data-cfemail=&quot;5810313f3018146b7668&quot;&gt;[email&amp;#160;protected]&lt;/a&gt;&lt;script cf-hash='f9e31' type=&quot;text/javascript&quot;&gt;\n/* &lt;![CDATA[ */!function(){try{var t=&quot;currentScript&quot;in document?document.currentScript:function(){for(var t=document.getElementsByTagName(&quot;script&quot;),e=t.length;e--;)if(t[e].getAttribute(&quot;cf-hash&quot;))return t[e]}();if(t&amp;&amp;t.previousSibling){var e,r,n,i,c=t.previousSibling,a=c.getAttribute(&quot;data-cfemail&quot;);if(a){for(e=&quot;&quot;,r=parseInt(a.substr(0,2),16),n=2;a.length-n;n+=2)i=parseInt(a.substr(n,2),16)^r,e+=String.fromCharCode(i);e=document.createTextNode(e),c.parentNode.replaceChild(e,c)}}}catch(u){}}();/* ]]&gt; */&lt;/script&gt; \nFormat settings, CABAC : No \nFormat settings, ReFrames : 5 frames \nDuration : 21mn 3s \nBit rate : 457 Kbps \nMaximum bit rate : 1 221 Kbps \nWidth : 720 pixels \nHeight : 400 pixels \nDisplay aspect ratio : 16:9 \nFrame rate : 23.976 fps \nStream size : 68.8 MiB (88%) \nTitle : Modern Family S05E19 HDTV x264 AAC [GWC] \nWriting library : x264 core \n\nAudio \nFormat : AAC \nFormat profile : HE-AAC / LC \nDuration : 21mn 3s \nBit rate mode : Variable \nChannel(s) : 2 channels \nSampling rate : 48.0 KHz / 24.0 KHz \nStream size : 9.04 MiB (12%) \nLanguage : English ","torrent":{"xt":"urn:btih:60e22befe998a7b4d0dd901da31c4c4b912a5bd7","amp;dn":"Modern+Family+S05E19+HDTV+x264+AAC+%5BGWC%5D.mp4","amp;tr":["udp%3A%2F%2Ftracker.openbittorrent.com%3A80","udp%3A%2F%2Fopen.demonii.com%3A1337","udp%3A%2F%2Ftracker.coppersurfer.tk%3A6969","udp%3A%2F%2Fexodus.desync.com%3A6969"],"infoHash":"60e22befe998a7b4d0dd901da31c4c4b912a5bd7","infoHashBuffer":{"type":"Buffer","data":[96,226,43,239,233,152,167,180,208,221,144,29,163,28,76,75,145,42,91,215]},"announce":[],"urlList":[]}}